<?xml version="1.0" encoding="UTF-8"?>
<svg width="2px" height="20px" viewBox="0 0 2 20" version="1.1" xmlns="http://www.w3.org/2000/svg" xmlns:xlink="http://www.w3.org/1999/xlink">
    <!-- Generator: Sketch 53.2 (72643) - https://sketchapp.com -->
    <title>Group 5</title>
    <desc>Created with Sketch.</desc>
    <g id="New-Design" stroke="none" stroke-width="1" fill="none" fill-rule="evenodd">
        <g id="Add-new-DKP---Step-01" transform="translate(-1299.000000, -1187.000000)">
            <g id="Group-5" transform="translate(1299.000000, 1187.000000)">
                <polygon id="Fill-1" fill="#FFFFFF" points="0 20 2 20 2 0 0 0"></polygon>
                <path d="M0,11 C0,10.4 0.4,10 1,10 C1.6,10 2,10.4 2,11 L2,16 C2,16.6 1.6,17 1,17 C0.4,17 0,16.6 0,16 L0,11 Z M0,1 C0,0.4 0.4,0 1,0 C1.6,0 2,0.4 2,1 L2,6 C2,6.6 1.6,7 1,7 C0.4,7 0,6.6 0,6 L0,1 Z" id="Fill-3" fill="#E6E9ED"></path>
            </g>
        </g>
    </g>
</svg>