<svg xmlns="http://www.w3.org/2000/svg" width="336" height="40" viewBox="0 0 336 40">
    <g fill="#FFF" fill-rule="evenodd">
        <path d="M157.886 9.144c2.588 0 4.567 1.32 5.624 3.511l-2.609 1.499c-.563-1.186-1.417-2.013-3.015-2.013-1.304 0-2.07.67-2.07 1.566 0 .962.608 1.476 2.993 2.192l.536.17c2.326.743 4.615 1.669 4.615 4.639 0 2.93-2.362 4.72-5.714 4.72-3.217 0-5.331-1.544-6.186-3.87l2.654-1.544c.563 1.454 1.665 2.394 3.622 2.394 1.868 0 2.52-.783 2.52-1.655 0-1.127-.992-1.582-3.182-2.22l-.372-.108c-2.35-.692-4.59-1.719-4.59-4.63 0-2.952 2.475-4.651 5.174-4.651zm94.927 0c2.88 0 5.422 1.453 6.772 3.69l-2.677 1.544c-.765-1.387-2.295-2.237-4.095-2.237-3.081 0-5.106 2.125-5.106 5.145 0 2.997 2.025 5.122 5.106 5.122 1.8 0 3.353-.85 4.095-2.215l2.677 1.544c-1.327 2.236-3.87 3.69-6.772 3.69-4.769 0-8.188-3.579-8.188-8.141 0-4.586 3.42-8.143 8.188-8.143zm-35.069.312c2.902 0 5.242 2.327 5.242 5.19 0 1.968-1.237 3.735-3.037 4.563l3.487 5.905h-3.352l-3.172-5.435h-2.362v5.435h-3.105V9.456h6.3zm21.1 0l5.534 15.658h-3.374l-.945-2.818h-6.276l-.945 2.818h-3.352l5.511-15.657h3.847zm30.548 0l5.534 15.658h-3.374l-.945-2.818h-6.276l-.945 2.818h-3.352l5.511-15.657h3.847zm13.317 0c4.342 0 7.581 3.423 7.581 7.83 0 4.406-3.24 7.828-7.58 7.828h-6.255V9.457h6.254zm24.901 0l4.522 7.404 4.5-7.403h3.194v15.657h-3.082V14.96l-4.432 7.27h-.36l-4.432-7.248v10.133h-3.104V9.457h3.194zm17.253 0l3.42 6.532 3.42-6.532h3.508l-5.398 9.552v6.106h-3.082v-6.106l-5.377-9.552h3.51zm-149.363 0v2.953h-6.524v3.333h5.962v2.908h-5.962v3.512h6.637v2.952h-9.741V9.457h9.628zm5.398 0v12.706h6.007v2.952h-9.111V9.457h3.104zm10.865 0v12.706h6.006v2.952h-9.11V9.457h3.104zm17.388 0v2.953h-6.523v3.333h5.961v2.908h-5.961v3.512h6.636v2.952h-9.74V9.457h9.627zm92.971 0v2.953h-6.524v3.333h5.962v2.908h-5.962v3.512h6.637v2.952h-9.741V9.457h9.628zM282.71 12.41h-3.15v9.753h3.15c2.722 0 4.612-1.991 4.612-4.876 0-2.886-1.89-4.877-4.612-4.877zm-45.777.604l-2.16 6.398h4.32l-2.16-6.398zm30.548 0l-2.16 6.398h4.32l-2.16-6.398zm-49.736-.67h-3.194v4.63h3.194c1.17 0 2.137-1.03 2.137-2.327s-.967-2.304-2.137-2.304zM77.47 9.426c.245 0 .477.107.635.292l.033.04.963 1.276v-.77c0-.447.35-.813.792-.837l.046-.001h2.38c.447 0 .812.35.836.792l.001.046V25.19c.001 1.634-.668 3.132-1.74 4.201-1.045 1.048-2.499 1.71-4.09 1.74h-3.202c-.246 0-.477-.107-.636-.292l-.033-.04-2.058-2.725c-.292-.386-.031-.936.442-.965l.04-.001h5.336c.536-.001 1.003-.212 1.357-.562.333-.337.54-.776.56-1.28l.001-.076h-5.81c-1.634.001-3.132-.668-4.2-1.74-1.048-1.045-1.711-2.5-1.74-4.09v-3.992c-.002-1.635.667-3.133 1.74-4.202 1.044-1.048 2.498-1.71 4.09-1.74h4.256zm17.865-5.527c.447 0 .813.35.837.792l.001.046v11.95l.006-.008v.022l5.29-6.945c.148-.195.372-.314.614-.329l.053-.001h3.514c.45 0 .71.5.467.866l-.023.03-5.346 7.02 5.29 6.95c.272.358.031.868-.407.896l-.038.002h-3.513c-.245 0-.476-.107-.634-.29l-.033-.04-4.906-6.448.003-.004-.331-.437v.007l-.006-.007v6.38c0 .448-.35.814-.792.837l-.046.002h-2.347c-.448 0-.813-.35-.837-.792l-.001-.046V4.737c0-.448.35-.813.792-.837l.046-.001h2.347zm33.217 0c.447 0 .813.35.836.792l.002.046v19.615c0 .447-.35.812-.792.836l-.046.002h-2.348c-.447 0-.812-.351-.836-.792l-.001-.046V4.737c0-.448.35-.813.791-.837l.046-.001h2.348zM64.059 9.412c.448 0 .813.35.837.792l.001.046v14.102c0 .447-.35.813-.792.836l-.046.002h-2.347c-.447 0-.813-.35-.837-.792l-.001-.046V10.25c0-.447.35-.813.792-.837h2.393zm24.768 0c.447 0 .812.35.836.792l.001.046v14.102c0 .447-.35.813-.791.836l-.046.002h-2.348c-.447 0-.813-.35-.836-.792l-.002-.046V10.25c0-.447.35-.813.792-.837H88.827zM57.55 3.9c.447 0 .813.35.837.792V24.352c0 .447-.35.812-.791.836l-.046.002h-2.348c-.447 0-.812-.35-.836-.792l-.001-.046v-.77l-.964 1.275c-.148.196-.373.316-.616.33l-.052.003h-4.178c-1.634 0-3.132-.669-4.2-1.74-1.049-1.045-1.711-2.5-1.74-4.09l-.001-.112v-3.881c-.001-1.635.668-3.133 1.74-4.201 1.044-1.048 2.499-1.71 4.09-1.74H54.366v-4.69c0-.447.35-.812.791-.836l.046-.001h2.348zm64.493 5.526c.447 0 .812.351.836.793l.001.046v14.088c0 .447-.35.812-.792.836l-.045.002h-2.384c-.447 0-.813-.35-.836-.792l-.002-.046v-.77l-.963 1.275c-.148.196-.373.316-.616.33l-.052.003h-4.142c-1.635 0-3.132-.669-4.201-1.74-1.048-1.045-1.71-2.5-1.74-4.09v-3.993c-.002-1.634.668-3.132 1.74-4.201 1.044-1.048 2.498-1.71 4.09-1.74h9.106zm24.767 0c.447 0 .813.351.836.793l.002.046v14.088c0 .447-.351.812-.792.836l-.046.002h-2.272c-.447 0-.812-.35-.836-.792l-.001-.046v-.77l-.964 1.275c-.148.196-.373.316-.616.33l-.053.003h-4.252c-1.635 0-3.133-.669-4.202-1.74-1.048-1.045-1.71-2.5-1.74-4.09v-3.993c-.001-1.634.668-3.132 1.74-4.201 1.045-1.048 2.499-1.71 4.09-1.74h9.106zM79.133 13.45h-5.81c-.535 0-1.002.212-1.355.562-.334.337-.541.776-.56 1.28l-.002.076v3.881c0 .537.211 1.004.562 1.357.336.333.776.54 1.28.56l.076.002h5.809v-7.718zm-24.768 0h-5.809c-.536 0-1.003.211-1.356.561-.334.337-.54.776-.56 1.28l-.002.077v3.881c.001.536.212 1.003.562 1.357.337.333.776.54 1.28.56l.076.001h5.81V13.45zm64.493 0h-5.809c-.536 0-1.003.211-1.356.561-.334.337-.54.777-.56 1.28l-.002.077v3.881c0 .536.211 1.003.562 1.357.336.333.776.54 1.28.56l.076.001h5.81l-.001-7.717zm24.767 0h-5.808c-.537 0-1.004.211-1.357.561-.334.337-.54.777-.56 1.28l-.002.077v3.881c.001.536.212 1.003.562 1.357.337.333.776.54 1.28.56l.077.001h5.809V13.45zM64.06 3.899c.448 0 .813.35.837.792l.001.046V6.68c0 .448-.35.813-.792.837l-.046.001h-2.347c-.447 0-.813-.35-.837-.792l-.001-.046V4.737c0-.448.35-.813.792-.837l.046-.001h2.347zm24.768 0c.447 0 .812.35.836.792l.001.046V6.68c0 .448-.35.813-.791.837l-.046.001h-2.348c-.447 0-.813-.35-.836-.792l-.002-.046V4.737c0-.448.35-.813.792-.837l.046-.001h2.348zM27.243 17.295c-2.399 2.892-5.978 4.591-9.766 4.591-3.789 0-7.368-1.699-9.767-4.591-.359-.433-.266-1.082.194-1.404l1.607-1.124c.41-.287.966-.208 1.293.171 1.663 1.933 4.098 3.065 6.673 3.065 2.574 0 5.009-1.132 6.672-3.065.327-.38.883-.458 1.293-.171l1.607 1.124c.46.322.553.97.194 1.404M21.992.202H1.98c-.987 0-1.788.8-1.788 1.787l.009 31.008c.004.985.802 1.782 1.787 1.782h20.004c7.052 0 12.769-5.717 12.769-12.77v-9.038C34.76 5.918 29.044.2 21.99.2" transform="translate(0 2.5)"/>
    </g>
</svg>
